# xmcd
# 
# Track frame offsets:
#     150
#     5126
#     27345
#     48521
#     66925
#     86506
#     108844
#     127516
#     143137
#     161827
#     183999
#     208060
#     229991
#     247929
#     265302
# 
# Disc length: 3756
# 
# Revision: 4
# Processed by: cddbd v1.5.2PL0 Copyright (c) Steve Scherf et al.
# Submitted via: fre:ac v1.0.17
# 
DISCID=cc0eaa0f
DTITLE=Kato Miliyah 加藤ミリヤ - Diamond Princess (Vol. 2)
DYEAR=2007
DGENRE=JPop
TTITLE0=Diamond
TTITLE1=Eyes on you
TTITLE2=Last Summer
TTITLE3=このままずっと朝まで
TTITLE4=LuvSong
TTITLE5=FAMILY
TTITLE6=Caught up
TTITLE7=My soul
TTITLE8=Cry no more
TTITLE9=I WILL
TTITLE10=ソツギョウ
TTITLE11=忘れないから
TTITLE12=So special
TTITLE13=Paradise
TTITLE14=Wonderful
EXTD=
EXTT0=
EXTT1=
EXTT2=
EXTT3=
EXTT4=
EXTT5=
EXTT6=
EXTT7=
EXTT8=
EXTT9=
EXTT10=
EXTT11=
EXTT12=
EXTT13=
EXTT14=
PLAYORDER=
